<?xml version="1.0" standalone="no"?>
<!DOCTYPE svg PUBLIC "-//W3C//DTD SVG 20010904//EN"
 "http://www.w3.org/TR/2001/REC-SVG-20010904/DTD/svg10.dtd">
<svg version="1.0" xmlns="http://www.w3.org/2000/svg"
 width="1759.000000pt" height="1758.000000pt" viewBox="0 0 1759.000000 1758.000000"
 preserveAspectRatio="xMidYMid meet">

<g transform="translate(0.000000,1758.000000) scale(0.100000,-0.100000)"
fill="#000000" stroke="none">
<path d="M9126 11266 c-9 -21 -16 -44 -16 -50 0 -7 -4 -16 -8 -21 -12 -14 -35
-115 -28 -122 3 -4 6 3 6 15 0 11 5 24 10 27 6 3 10 14 10 24 0 9 11 46 25 81
27 70 28 110 1 46z"/>
<path d="M9041 10994 c0 -11 3 -14 6 -6 3 7 2 16 -1 19 -3 4 -6 -2 -5 -13z"/>
<path d="M9315 10991 c-38 -4 -113 -18 -165 -30 -66 -17 -95 -20 -98 -12 -6
18 -32 13 -32 -7 0 -20 -11 -27 -115 -71 -39 -17 -60 -30 -48 -31 12 0 42 9
66 19 40 17 47 18 58 5 9 -12 9 -26 -1 -69 -7 -30 -11 -57 -9 -60 3 -2 14 29
24 71 11 46 25 79 36 84 27 15 99 36 169 51 95 20 365 18 454 -4 168 -42 241
-123 211 -235 -25 -97 -102 -194 -224 -286 -31 -22 -58 -44 -61 -47 -17 -19
-164 -104 -365 -209 -55 -29 -113 -60 -130 -70 -27 -16 -102 -56 -165 -90 -14
-7 -32 -17 -40 -22 -8 -5 -23 -11 -32 -14 -10 -4 -18 -10 -18 -15 0 -4 22 3
49 16 27 14 51 25 54 25 6 0 289 134 362 171 22 12 76 39 120 62 343 175 516
384 474 575 -19 89 -83 142 -215 176 -70 18 -260 27 -359 17z"/>
<path d="M8952 10685 c0 -16 2 -22 5 -12 2 9 2 23 0 30 -3 6 -5 -1 -5 -18z"/>
<path d="M7802 10343 c-29 -35 -104 -141 -167 -235 -63 -95 -121 -183 -130
-195 -13 -18 -26 -23 -63 -23 -96 -1 -192 -43 -192 -84 0 -31 9 -40 65 -68 28
-13 51 -31 53 -39 1 -8 -46 -97 -105 -199 -60 -102 -126 -219 -147 -260 -21
-41 -43 -80 -47 -86 -14 -17 -161 -310 -198 -394 -19 -41 -52 -115 -74 -163
-32 -69 -38 -90 -28 -100 15 -15 16 -14 100 168 95 205 330 662 411 800 13 22
46 79 73 128 34 61 54 87 67 87 20 0 111 -32 142 -50 10 -6 23 -10 30 -10 7 0
-24 21 -69 46 -54 29 -83 51 -83 62 0 10 11 34 25 54 14 20 25 41 25 46 0 18
35 23 183 29 81 3 144 10 140 14 -5 5 -64 11 -133 15 -69 4 -128 12 -132 17
-3 6 9 35 28 64 19 29 34 56 34 60 0 3 57 86 126 184 69 99 124 183 122 187
-2 4 -27 -21 -56 -55z m-363 -502 c12 -8 12 -14 2 -39 -7 -17 -21 -38 -32 -48
-18 -16 -21 -16 -65 1 -48 18 -64 39 -45 58 9 10 54 23 121 36 3 0 11 -3 19
-8z"/>
<path d="M9190 9719 c-287 -18 -320 -21 -315 -28 6 -11 578 -1 590 10 17 17
-17 29 -80 27 -33 0 -121 -5 -195 -9z"/>
<path d="M7610 9606 c0 -2 9 -6 20 -9 11 -3 20 -1 20 4 0 5 -9 9 -20 9 -11 0
-20 -2 -20 -4z"/>
<path d="M11495 7927 c-153 -58 -253 -171 -290 -329 -19 -80 -19 -136 0 -216
43 -183 153 -296 327 -337 81 -19 135 -19 211 1 127 33 206 91 260 191 35 66
64 207 47 229 -10 11 -53 14 -236 14 l-224 0 -6 -27 c-14 -54 -3 -58 190 -61
175 -2 176 -3 176 -25 -2 -78 -66 -164 -157 -209 -61 -30 -75 -33 -157 -32
-80 0 -98 4 -149 29 -116 58 -185 170 -194 315 -9 132 41 246 141 321 163 123
412 74 494 -98 15 -31 20 -34 47 -29 56 12 61 27 29 86 -37 68 -123 144 -194
172 -85 33 -236 35 -315 5z"/>
<path d="M12560 7935 c-170 -53 -234 -271 -113 -386 52 -51 88 -66 200 -89
128 -27 178 -51 203 -101 60 -117 -21 -230 -168 -232 -97 -1 -179 49 -217 133
-14 32 -23 40 -45 40 -14 0 -35 -6 -45 -14 -18 -13 -18 -15 0 -62 25 -66 99
-137 172 -164 134 -50 245 -33 339 52 84 78 106 176 60 273 -41 90 -104 128
-271 165 -55 12 -113 29 -128 37 -70 36 -90 141 -37 204 39 48 86 69 154 69
94 0 159 -37 197 -112 11 -21 21 -38 23 -38 2 0 17 5 35 11 25 9 31 17 31 38
0 33 -45 99 -92 134 -72 54 -200 72 -298 42z"/>
<path d="M4619 7893 c-11 -27 -40 -93 -63 -148 -24 -55 -60 -140 -81 -190 -21
-49 -59 -139 -86 -200 -96 -223 -127 -300 -123 -307 6 -10 66 -10 79 0 6 4 31
54 57 112 l45 105 240 3 c185 2 243 -1 251 -10 5 -7 27 -53 47 -103 21 -49 42
-96 48 -103 15 -18 93 -12 89 7 -3 14 -210 501 -314 741 -28 63 -55 121 -60
128 -6 6 -32 12 -60 12 -49 0 -49 0 -69 -47z m178 -294 c51 -118 92 -220 93
-226 0 -10 -45 -13 -194 -13 -107 0 -197 4 -200 8 -2 4 38 107 90 227 51 121
94 222 94 223 0 2 6 2 12 0 7 -3 54 -101 105 -219z"/>
<path d="M5444 7916 c-3 -14 -4 -160 -2 -323 6 -349 10 -371 88 -456 157 -172
457 -128 554 82 20 43 21 65 24 384 l3 338 -43 -3 -43 -3 -5 -320 c-5 -317 -5
-321 -30 -369 -34 -69 -82 -104 -157 -117 -119 -21 -216 21 -266 114 -21 40
-22 55 -27 367 l-5 325 -42 3 c-38 3 -43 1 -49 -22z"/>
<path d="M6546 7924 c-3 -9 -6 -206 -6 -439 0 -465 -2 -449 62 -443 l33 3 5
180 5 180 82 3 c96 3 85 11 188 -133 39 -53 93 -127 120 -164 50 -65 52 -66
98 -66 26 0 47 4 48 8 1 5 -54 85 -121 178 -67 94 -120 176 -117 183 3 7 23
18 44 24 198 59 241 335 71 449 -66 44 -123 53 -327 53 -154 0 -180 -2 -185
-16z m429 -95 c67 -32 90 -70 90 -150 0 -57 -4 -71 -29 -103 -43 -57 -95 -76
-229 -83 -63 -3 -126 -3 -141 1 l-26 6 0 175 0 175 145 0 c127 0 151 -3 190
-21z"/>
<path d="M7814 7913 c-9 -15 -96 -215 -193 -443 -189 -441 -187 -435 -119
-428 30 3 34 9 81 116 l50 112 242 0 243 0 47 -107 c26 -60 52 -111 58 -115
16 -11 75 -10 81 1 3 4 -32 95 -77 202 -46 107 -86 201 -90 209 -3 8 -51 119
-105 245 l-99 230 -52 3 c-47 3 -53 1 -67 -25z m73 -105 c17 -27 183 -420 183
-434 0 -12 -34 -14 -195 -14 -149 0 -195 3 -195 13 0 19 183 447 191 447 4 0
11 -6 16 -12z"/>
<path d="M9155 7928 c-3 -7 -4 -209 -3 -448 l3 -435 40 0 40 0 3 169 c1 104 7
175 13 183 8 9 37 13 90 13 l78 0 30 -37 c16 -21 77 -103 134 -183 104 -145
104 -145 147 -148 68 -5 69 8 10 90 -203 276 -216 298 -174 298 26 0 108 47
141 82 44 46 63 97 63 170 -1 124 -69 211 -192 244 -71 19 -416 20 -423 2z
m420 -97 c53 -24 81 -56 95 -109 14 -53 6 -95 -27 -145 -37 -59 -89 -77 -236
-84 -177 -8 -167 -19 -167 181 0 89 3 166 7 169 3 4 70 7 147 7 116 0 148 -4
181 -19z"/>
<path d="M10154 7926 c-3 -8 -4 -153 -2 -323 4 -270 6 -315 23 -362 25 -71 99
-152 165 -180 147 -63 327 -21 417 97 59 78 65 115 70 439 3 161 2 304 -1 319
-6 23 -11 25 -49 22 l-42 -3 -5 -320 c-5 -317 -5 -321 -30 -369 -33 -67 -82
-103 -153 -116 -119 -22 -214 17 -267 111 -25 44 -25 45 -30 369 l-5 325 -43
3 c-30 2 -44 -1 -48 -12z"/>
<path d="M4324 6727 c-9 -24 1 -267 11 -267 6 0 12 26 15 57 l5 58 45 5 c25 3
45 10 45 15 0 6 -20 12 -45 15 -44 5 -45 6 -48 43 -4 53 11 67 70 67 30 0 47
4 43 10 -10 15 -135 13 -141 -3z"/>
<path d="M4780 6725 c-15 -18 -9 -257 7 -262 9 -3 13 23 15 98 2 66 7 104 15
106 6 2 41 -42 79 -99 68 -105 82 -121 96 -112 12 7 10 274 -2 274 -5 0 -11
-45 -12 -102 -2 -68 -7 -103 -15 -105 -7 -3 -43 43 -80 101 -37 58 -73 108
-80 110 -6 3 -17 -1 -23 -9z"/>
<path d="M5164 6727 c-2 -7 -3 -71 -2 -143 l3 -129 44 -3 c49 -4 97 5 87 16
-4 4 -31 9 -59 12 l-52 5 0 44 0 45 50 11 50 11 -50 10 c-49 9 -50 10 -53 47
-4 53 10 67 72 67 37 0 47 3 36 10 -23 15 -120 12 -126 -3z"/>
<path d="M11109 6725 c-42 -18 -79 -77 -79 -124 0 -45 23 -94 55 -119 51 -41
185 -23 185 24 0 11 -5 10 -21 -5 -63 -58 -165 -29 -199 57 -41 105 97 208
191 141 16 -11 29 -16 29 -11 0 16 -47 41 -87 47 -23 3 -52 -1 -74 -10z"/>
<path d="M12175 6729 c-33 -19 -45 -41 -45 -80 0 -45 32 -89 66 -89 36 0 39
-24 9 -65 -25 -32 -25 -46 0 -27 13 9 88 110 103 139 30 56 -7 121 -73 129
-22 2 -49 -1 -60 -7z m96 -28 c51 -41 17 -131 -49 -131 -37 0 -72 37 -72 76 0
64 71 96 121 55z"/>
<path d="M12470 6727 c-29 -15 -37 -47 -20 -87 10 -25 9 -32 -10 -58 -18 -24
-21 -38 -16 -65 8 -42 23 -56 70 -64 92 -15 148 63 95 132 -21 25 -21 29 -7
59 13 27 14 36 3 56 -21 39 -69 50 -115 27z m78 -13 c33 -23 27 -75 -10 -88
-63 -22 -109 51 -56 88 28 20 38 20 66 0z m10 -130 c47 -33 17 -114 -43 -114
-37 0 -65 28 -65 65 0 37 28 65 65 65 11 0 31 -7 43 -16z"/>
<path d="M12746 6731 c-3 -4 -8 -34 -12 -65 l-7 -56 47 0 c26 0 56 -5 67 -11
45 -24 43 -98 -4 -120 -31 -14 -74 3 -89 36 -14 30 -28 33 -28 5 0 -61 99 -92
154 -49 22 17 26 28 26 69 0 59 -25 84 -95 94 -39 6 -45 10 -45 31 0 38 26 55
81 55 31 0 48 4 44 10 -8 12 -132 13 -139 1z"/>
<path d="M4597 6723 c-9 -8 -9 -226 -1 -247 16 -42 24 -4 24 119 0 123 -4 147
-23 128z"/>
<path d="M5600 6601 c0 -76 4 -132 10 -136 6 -4 10 14 10 47 0 30 5 59 12 66
7 7 39 12 73 12 34 0 66 -5 73 -12 7 -7 12 -36 12 -65 0 -29 5 -53 10 -53 6 0
10 52 10 135 0 83 -4 135 -10 135 -5 0 -10 -24 -10 -53 0 -29 -5 -58 -12 -65
-12 -12 -114 -17 -142 -6 -12 5 -16 21 -16 65 0 33 -4 59 -10 59 -6 0 -10 -50
-10 -129z"/>
<path d="M6033 6700 c-3 -17 -10 -33 -14 -36 -5 -3 -9 -17 -9 -32 1 -24 2 -23
15 12 20 58 32 66 56 36 l20 -25 -7 30 c-9 41 -12 45 -35 45 -14 0 -21 -9 -26
-30z"/>
<path d="M6316 6722 c-3 -5 -1 -22 4 -38 4 -16 9 -23 9 -15 1 8 8 11 21 8 23
-6 24 -6 8 28 -11 25 -32 33 -42 17z"/>
<path d="M10672 6603 l2 -128 5 99 c5 82 9 100 24 105 16 6 16 8 2 29 -9 12
-20 22 -26 22 -5 0 -8 -53 -7 -127z"/>
<path d="M11422 6598 l3 -133 65 -1 c57 -2 60 -1 20 5 -62 9 -70 16 -70 61 0
44 8 52 65 61 39 6 39 7 7 8 -54 2 -72 17 -72 59 0 52 9 60 65 65 44 3 42 4
-18 5 l-68 2 3 -132z"/>
<path d="M11896 6705 c-16 -14 -25 -25 -20 -25 6 0 15 5 22 12 8 8 15 8 27 -2
12 -10 15 -36 15 -123 0 -76 3 -108 10 -101 7 7 10 59 8 135 -3 138 -10 149
-62 104z"/>
<path d="M6520 6620 c-5 -100 -6 -105 -27 -104 -17 0 -20 -3 -13 -16 5 -9 16
-22 24 -29 24 -20 27 -1 24 135 l-3 119 -5 -105z"/>
<path d="M7061 6678 c1 -28 3 -34 6 -18 3 14 11 29 19 33 17 10 9 27 -12 27
-10 0 -14 -12 -13 -42z"/>
<path d="M10494 6595 c0 -71 1 -99 3 -62 2 37 2 96 0 130 -2 34 -3 4 -3 -68z"/>
<path d="M5976 6549 c-11 -30 -21 -60 -24 -66 -2 -7 0 -13 6 -13 5 0 13 11 16
24 7 26 30 36 94 36 49 0 82 -14 82 -35 0 -7 4 -16 9 -20 10 -6 4 20 -20 85
-13 34 -13 34 -19 10 -5 -23 -11 -25 -60 -25 -53 0 -55 1 -60 29 -5 27 -6 26
-24 -25z"/>
<path d="M10837 6500 c27 -48 43 -50 43 -5 0 32 -2 36 -15 25 -12 -10 -18 -10
-31 1 -12 10 -12 6 3 -21z"/>
</g>
</svg>
